<mxfile host="app.diagrams.net" modified="2021-10-05T10:09:27.229Z" agent="5.0 (Windows NT 10.0; Win64; x64) AppleWebKit/537.36 (KHTML, like Gecko) Chrome/94.0.4606.61 Safari/537.36" etag="bk9bA6ANE-9CZwsLBHt2" version="15.2.9" type="github">
  <diagram id="zDCgl1lZMFW1JyzD8VeT" name="第 1 页">
    <mxGraphModel dx="1038" dy="547" grid="1" gridSize="10" guides="1" tooltips="1" connect="1" arrows="1" fold="1" page="1" pageScale="1" pageWidth="827" pageHeight="1169" math="0" shadow="0">
      <root>
        <mxCell id="0" />
        <mxCell id="1" parent="0" />
        <mxCell id="Is5E9-EK4MYsvt7L6nUR-2" value="" style="rounded=0;whiteSpace=wrap;html=1;fillColor=#ffe6cc;strokeColor=#d79b00;" vertex="1" parent="1">
          <mxGeometry x="90" y="320" width="120" height="80" as="geometry" />
        </mxCell>
        <mxCell id="Is5E9-EK4MYsvt7L6nUR-3" value="" style="rounded=0;whiteSpace=wrap;html=1;fillColor=#f8cecc;strokeColor=#b85450;" vertex="1" parent="1">
          <mxGeometry x="80" y="330" width="120" height="80" as="geometry" />
        </mxCell>
        <mxCell id="Is5E9-EK4MYsvt7L6nUR-18" style="edgeStyle=orthogonalEdgeStyle;rounded=0;orthogonalLoop=1;jettySize=auto;html=1;exitX=1;exitY=0.5;exitDx=0;exitDy=0;" edge="1" parent="1" source="Is5E9-EK4MYsvt7L6nUR-4" target="Is5E9-EK4MYsvt7L6nUR-16">
          <mxGeometry relative="1" as="geometry" />
        </mxCell>
        <mxCell id="Is5E9-EK4MYsvt7L6nUR-20" style="edgeStyle=orthogonalEdgeStyle;rounded=0;orthogonalLoop=1;jettySize=auto;html=1;exitX=1;exitY=0.5;exitDx=0;exitDy=0;" edge="1" parent="1" source="Is5E9-EK4MYsvt7L6nUR-4" target="Is5E9-EK4MYsvt7L6nUR-19">
          <mxGeometry relative="1" as="geometry" />
        </mxCell>
        <mxCell id="Is5E9-EK4MYsvt7L6nUR-4" value="" style="rounded=0;whiteSpace=wrap;html=1;fillColor=#d5e8d4;strokeColor=#82b366;" vertex="1" parent="1">
          <mxGeometry x="70" y="340" width="120" height="80" as="geometry" />
        </mxCell>
        <mxCell id="Is5E9-EK4MYsvt7L6nUR-5" value="" style="rounded=0;whiteSpace=wrap;html=1;fillColor=#e1d5e7;strokeColor=#9673a6;" vertex="1" parent="1">
          <mxGeometry x="60" y="350" width="120" height="80" as="geometry" />
        </mxCell>
        <mxCell id="Is5E9-EK4MYsvt7L6nUR-6" value="" style="rounded=0;whiteSpace=wrap;html=1;fillColor=#f5f5f5;strokeColor=#666666;fontColor=#333333;" vertex="1" parent="1">
          <mxGeometry x="50" y="360" width="120" height="80" as="geometry" />
        </mxCell>
        <mxCell id="Is5E9-EK4MYsvt7L6nUR-7" value="" style="rounded=0;whiteSpace=wrap;html=1;fillColor=#dae8fc;strokeColor=#6c8ebf;" vertex="1" parent="1">
          <mxGeometry x="40" y="370" width="120" height="80" as="geometry" />
        </mxCell>
        <mxCell id="Is5E9-EK4MYsvt7L6nUR-12" value="" style="edgeStyle=orthogonalEdgeStyle;rounded=0;orthogonalLoop=1;jettySize=auto;html=1;" edge="1" parent="1" source="Is5E9-EK4MYsvt7L6nUR-10" target="Is5E9-EK4MYsvt7L6nUR-11">
          <mxGeometry relative="1" as="geometry" />
        </mxCell>
        <mxCell id="Is5E9-EK4MYsvt7L6nUR-10" value="&lt;b&gt;Degraded&lt;/b&gt;" style="rounded=0;whiteSpace=wrap;html=1;fillColor=#f5f5f5;strokeColor=#666666;gradientColor=#b3b3b3;" vertex="1" parent="1">
          <mxGeometry x="50" y="550" width="120" height="80" as="geometry" />
        </mxCell>
        <mxCell id="Is5E9-EK4MYsvt7L6nUR-15" value="" style="edgeStyle=orthogonalEdgeStyle;rounded=0;orthogonalLoop=1;jettySize=auto;html=1;" edge="1" parent="1" source="Is5E9-EK4MYsvt7L6nUR-11" target="Is5E9-EK4MYsvt7L6nUR-14">
          <mxGeometry relative="1" as="geometry" />
        </mxCell>
        <mxCell id="Is5E9-EK4MYsvt7L6nUR-11" value="" style="shape=orEllipse;perimeter=ellipsePerimeter;whiteSpace=wrap;html=1;backgroundOutline=1;" vertex="1" parent="1">
          <mxGeometry x="240" y="575" width="30" height="30" as="geometry" />
        </mxCell>
        <mxCell id="Is5E9-EK4MYsvt7L6nUR-14" value="&lt;b&gt;Restored&lt;/b&gt;" style="rounded=0;whiteSpace=wrap;html=1;fillColor=#d5e8d4;strokeColor=#82b366;gradientColor=#97d077;" vertex="1" parent="1">
          <mxGeometry x="330" y="550" width="120" height="80" as="geometry" />
        </mxCell>
        <mxCell id="Is5E9-EK4MYsvt7L6nUR-17" value="" style="edgeStyle=orthogonalEdgeStyle;rounded=0;orthogonalLoop=1;jettySize=auto;html=1;" edge="1" parent="1" source="Is5E9-EK4MYsvt7L6nUR-16" target="Is5E9-EK4MYsvt7L6nUR-11">
          <mxGeometry relative="1" as="geometry" />
        </mxCell>
        <mxCell id="Is5E9-EK4MYsvt7L6nUR-16" value="&lt;b&gt;Conv&lt;/b&gt;" style="rounded=0;whiteSpace=wrap;html=1;fillColor=#fad7ac;strokeColor=#b46504;" vertex="1" parent="1">
          <mxGeometry x="215" y="480" width="80" height="30" as="geometry" />
        </mxCell>
        <mxCell id="Is5E9-EK4MYsvt7L6nUR-19" value="&lt;b&gt;Conv&lt;/b&gt;" style="rounded=0;whiteSpace=wrap;html=1;rotation=-90;fillColor=#fad7ac;strokeColor=#b46504;" vertex="1" parent="1">
          <mxGeometry x="370" y="365" width="80" height="30" as="geometry" />
        </mxCell>
      </root>
    </mxGraphModel>
  </diagram>
</mxfile>
